<svg preserveAspectRatio="xMidYMid meet" data-bbox="62.492 0 387.007 511.992" viewBox="0 0 511.992 511.992" xmlns="http://www.w3.org/2000/svg" data-type="ugc" role="presentation" aria-hidden="true">
    <g>
        <path fill="#a4c2f7" d="M432.431 409.592v93.867h-204.8v-93.867h204.8z"></path>
        <path d="M425.057 277.859l-94.888 94.888a19.578 19.578 0 0 1-27.686 0l-82.622-82.623h-56.23c-4.933 2.411-18.389-6.301-13.223-1.867l92.261 91.906c.63.63 1.363 1.084 2.029 1.655v27.772h170.667v-38.487a63.793 63.793 0 0 0 9.692-93.244z" fill="#e3e7f2"></path>
        <path fill="#7facfa" d="M330.03 456.525c0 11.782-9.551 21.333-21.333 21.333-11.782 0-21.333-9.551-21.333-21.333 0-11.782 9.551-21.333 21.333-21.333 11.782 0 21.333 9.551 21.333 21.333z"></path>
        <path d="M295.08 99.851a29.848 29.848 0 1 0-39.308-39.308l39.308 39.308z" fill="#e3e7f2"></path>
        <path d="M337.747 142.517a29.848 29.848 0 1 0-39.308-39.308l39.308 39.308z" fill="#e3e7f2"></path>
        <path d="M380.414 185.184a29.848 29.848 0 1 0-39.308-39.308l39.308 39.308z" fill="#e3e7f2"></path>
        <path d="M423.081 227.851a29.848 29.848 0 1 0-39.308-39.308l39.308 39.308z" fill="#e3e7f2"></path>
        <linearGradient gradientTransform="matrix(369.9565 0 0 -369.9559 19174.424 241447.64)" y2="652.116" x2="-50.637" y1="652.116" x1="-51.637" gradientUnits="userSpaceOnUse" id="svgcid--bsnz6i9rlkp7">
            <stop offset="0" stop-color="#d4e1f4"></stop>
            <stop offset=".172" stop-color="#d4e1f4"></stop>
            <stop offset=".2" stop-color="#d4e1f4"></stop>
            <stop offset=".2" stop-color="#dae4f4"></stop>
            <stop offset=".201" stop-color="#ebebf4"></stop>
            <stop offset=".201" stop-color="#f6f1f4"></stop>
            <stop offset=".202" stop-color="#fdf4f4"></stop>
            <stop offset=".205" stop-color="#fff5f4"></stop>
            <stop offset=".252" stop-color="#fff5f4"></stop>
            <stop offset=".26" stop-color="#fff5f4"></stop>
            <stop offset=".26" stop-color="#d4e1f4"></stop>
            <stop offset=".397" stop-color="#d4e1f4"></stop>
            <stop offset=".42" stop-color="#d4e1f4"></stop>
            <stop offset=".42" stop-color="#dae4f4"></stop>
            <stop offset=".421" stop-color="#ebebf4"></stop>
            <stop offset=".421" stop-color="#f6f1f4"></stop>
            <stop offset=".422" stop-color="#fdf4f4"></stop>
            <stop offset=".425" stop-color="#fff5f4"></stop>
            <stop offset=".489" stop-color="#fff5f4"></stop>
            <stop offset=".5" stop-color="#fff5f4"></stop>
            <stop offset=".5" stop-color="#f9f2f4"></stop>
            <stop offset=".5" stop-color="#e8ebf4"></stop>
            <stop offset=".5" stop-color="#dde5f4"></stop>
            <stop offset=".5" stop-color="#d6e2f4"></stop>
            <stop offset=".501" stop-color="#d4e1f4"></stop>
            <stop offset=".706" stop-color="#d4e1f4"></stop>
            <stop offset=".74" stop-color="#d4e1f4"></stop>
            <stop offset=".741" stop-color="#fff5f4"></stop>
            <stop offset=".835" stop-color="#fff5f4"></stop>
            <stop offset=".85" stop-color="#fff5f4"></stop>
            <stop offset=".851" stop-color="#d4e1f4"></stop>
        </linearGradient>
        <path d="M435.23 240L209.489 14.259a19.578 19.578 0 0 0-27.686 0L76.741 119.32a19.578 19.578 0 0 0 0 27.686l83.708 83.708a28.996 28.996 0 0 1 3.181-.323h85.333c16.495 0 29.867 13.372 29.867 29.867s-13.372 29.867-29.867 29.867H219.86l82.622 82.622a19.578 19.578 0 0 0 27.686 0L435.23 267.686c7.645-7.645 7.645-20.041 0-27.686z" fill="url(#svgcid--bsnz6i9rlkp7)"></path>
        <path d="M209.489 14.259a19.578 19.578 0 0 0-27.686 0L76.741 119.32a19.578 19.578 0 0 0 0 27.686l26.073 26.073L235.562 40.332l-26.073-26.073z" fill="#a4c2f7"></path>
        <path d="M432.431 511.992h-204.8a8.525 8.525 0 0 1-8.533-8.533v-93.867a8.525 8.525 0 0 1 8.533-8.533h204.8a8.525 8.525 0 0 1 8.533 8.533v93.867a8.525 8.525 0 0 1-8.533 8.533zm-196.267-17.067h187.733v-76.8H236.164v76.8z" fill="#428dff"></path>
        <path d="M364.164 511.992H227.631a8.525 8.525 0 0 1-8.533-8.533v-93.867a8.525 8.525 0 0 1 8.533-8.533h80.433c35.68.038 64.595 28.953 64.633 64.633v37.767a8.525 8.525 0 0 1-8.533 8.533zm-128-17.067h119.467v-29.233c-.032-26.257-21.31-47.535-47.567-47.567h-71.9v76.8z" fill="#428dff"></path>
        <path d="M308.697 486.392c-16.495 0-29.867-13.372-29.867-29.867s13.372-29.867 29.867-29.867 29.867 13.372 29.867 29.867c-.02 16.487-13.38 29.847-29.867 29.867zm0-42.667c-7.069 0-12.8 5.731-12.8 12.8s5.731 12.8 12.8 12.8 12.8-5.731 12.8-12.8c-.007-7.066-5.734-12.792-12.8-12.8z" fill="#428dff"></path>
        <path d="M295.081 108.383c-2.263 0-4.433-.9-6.033-2.5l-39.309-39.308a8.55 8.55 0 0 1-1.783-9.467c6.893-15.737 23.405-24.977 40.423-22.62 17.018 2.357 30.397 15.736 32.754 32.754 2.357 17.018-6.882 33.53-22.62 40.423a8.554 8.554 0 0 1-3.432.718zm-28.6-49.2l29.958 29.958a21.312 21.312 0 1 0-29.958-29.958z" fill="#428dff"></path>
        <path d="M337.747 151.05c-2.263 0-4.433-.9-6.033-2.5l-39.308-39.308a8.55 8.55 0 0 1-1.783-9.467c6.893-15.737 23.405-24.977 40.423-22.62 17.018 2.357 30.397 15.736 32.754 32.754 2.357 17.018-6.882 33.53-22.62 40.423a8.555 8.555 0 0 1-3.433.718zm-28.6-49.2l29.958 29.958a21.312 21.312 0 1 0-29.958-29.958z" fill="#428dff"></path>
        <path d="M380.414 193.717c-2.263 0-4.433-.9-6.033-2.5l-39.308-39.308a8.55 8.55 0 0 1-1.783-9.467c6.893-15.737 23.405-24.977 40.423-22.62 17.018 2.357 30.397 15.736 32.754 32.754 2.357 17.018-6.882 33.53-22.62 40.423a8.555 8.555 0 0 1-3.433.718zm-28.6-49.2l29.958 29.958a21.312 21.312 0 1 0-29.958-29.958z" fill="#428dff"></path>
        <path d="M423.081 236.383c-2.263 0-4.433-.9-6.033-2.5l-39.308-39.308a8.55 8.55 0 0 1-1.783-9.467c6.893-15.737 23.405-24.977 40.423-22.62 17.018 2.357 30.397 15.736 32.754 32.754 2.357 17.018-6.882 33.53-22.62 40.423a8.562 8.562 0 0 1-3.433.718zm-28.6-49.2l29.958 29.958a21.312 21.312 0 1 0-29.958-29.958z" fill="#428dff"></path>
        <path d="M163.631 230.392h85.333c16.495 0 29.867 13.372 29.867 29.867s-13.372 29.867-29.867 29.867h-85.333c-16.495 0-29.867-13.372-29.867-29.867 0-16.496 13.372-29.867 29.867-29.867z" fill="#e3e7f2"></path>
        <path d="M248.964 298.658h-85.333c-21.208 0-38.4-17.192-38.4-38.4s17.192-38.4 38.4-38.4h85.333c21.208 0 38.4 17.192 38.4 38.4s-17.192 38.4-38.4 38.4zm-85.333-59.733c-11.782 0-21.333 9.551-21.333 21.333 0 11.782 9.551 21.333 21.333 21.333h85.333c11.782 0 21.333-9.551 21.333-21.333 0-11.782-9.551-21.333-21.333-21.333h-85.333z" fill="#428dff"></path>
        <path fill="#a4c2f7" d="M372.697 281.592c0 14.138-11.462 25.6-25.6 25.6-14.138 0-25.6-11.462-25.6-25.6 0-14.138 11.462-25.6 25.6-25.6 14.138 0 25.6 11.462 25.6 25.6z"></path>
        <path d="M347.097 315.725c-18.851 0-34.133-15.282-34.133-34.133 0-18.851 15.282-34.133 34.133-34.133 18.851 0 34.133 15.282 34.133 34.133-.018 18.843-15.289 34.114-34.133 34.133zm0-51.2c-9.426 0-17.067 7.641-17.067 17.067s7.641 17.067 17.067 17.067 17.067-7.641 17.067-17.067c-.012-9.421-7.646-17.055-17.067-17.067z" fill="#428dff"></path>
        <path d="M142.297 102.392a8.533 8.533 0 0 1-6.033-14.566l17.067-17.067a8.533 8.533 0 0 1 12.066 12.066L148.33 99.891a8.508 8.508 0 0 1-6.033 2.501z" fill="#428dff"></path>
        <path d="M316.322 387a28.052 28.052 0 0 1-19.875-8.217l-82.617-82.625a8.533 8.533 0 0 1 6.033-14.567h29.1c11.782 0 21.333-9.551 21.333-21.333 0-11.782-9.551-21.333-21.333-21.333H163.63a7.377 7.377 0 0 0-1.058.125l-1.192.15a8.451 8.451 0 0 1-6.967-2.45l-83.709-83.708c-10.95-10.991-10.95-28.767 0-39.758L175.772 8.225c11.123-10.617 28.627-10.617 39.75 0l225.742 225.742a28.103 28.103 0 0 1 0 39.75L336.206 378.783A28.059 28.059 0 0 1 316.322 387zm-75.858-88.342l68.05 68.058c4.317 4.308 11.308 4.308 15.625 0L429.197 261.65c4.308-4.314 4.308-11.303 0-15.617L203.456 20.292c-4.318-4.3-11.299-4.3-15.617 0L82.772 125.35c-4.3 4.321-4.3 11.304 0 15.625l80.883 80.883h85.308c21.208 0 38.4 17.192 38.4 38.4s-17.192 38.4-38.4 38.4h-8.499z" fill="#428dff"></path>
        <path d="M415.364 418.125H244.697a8.525 8.525 0 0 1-8.533-8.533v-23.858L144.381 294.3a8.598 8.598 0 0 1-2.408-11.733 9.696 9.696 0 0 1 13-2.633c1.964.862 4 1.551 6.083 2.058a8.425 8.425 0 0 1 2.575-.4h56.233c2.263 0 4.434.899 6.033 2.5l82.617 82.625c4.317 4.308 11.308 4.308 15.625 0l94.884-94.892a7.823 7.823 0 0 1 6.317-2.492 8.518 8.518 0 0 1 6.133 2.9 72.32 72.32 0 0 1-7.575 102.975v34.383a8.526 8.526 0 0 1-8.534 8.534zm-162.133-17.067h153.6v-29.95a8.522 8.522 0 0 1 3.4-6.817c22.988-17.156 29.02-49.052 13.884-73.417l-87.909 87.908c-10.991 10.95-28.767 10.95-39.758 0l-80.117-80.125h-43.392l75.75 75.467c.742.55 1.15.858 1.533 1.192a8.527 8.527 0 0 1 3.008 6.5v19.242z" fill="#428dff"></path>
        <path d="M102.814 181.617a8.502 8.502 0 0 1-6.033-2.5l-26.075-26.075c-10.95-10.991-10.95-28.767 0-39.758L175.772 8.225c10.981-10.967 28.769-10.967 39.75 0L241.597 34.3a8.529 8.529 0 0 1 0 12.066l-132.75 132.75a8.503 8.503 0 0 1-6.033 2.501zm92.834-164.559a10.977 10.977 0 0 0-7.808 3.233L82.772 125.35c-4.3 4.321-4.3 11.304 0 15.625l20.042 20.042L223.497 40.333l-20.042-20.042a10.977 10.977 0 0 0-7.807-3.233z" fill="#428dff"></path>
    </g>
</svg>