<svg preserveAspectRatio="xMidYMid meet" data-bbox="-0.001 0 512.001 512" xmlns="http://www.w3.org/2000/svg" width="512pt" viewBox="-0.001 0 512.001 512" height="512pt" data-type="color" role="presentation" aria-hidden="true">
    <g>
        <path fill="#a4c2f7" d="M366.934 76.8v409.598c-.028 9.415-7.653 17.04-17.067 17.07H25.602c-9.414-.03-17.04-7.655-17.067-17.07V25.602a16.68 16.68 0 0 1 5.035-12.036 12.707 12.707 0 0 1 1.621-1.449 16.527 16.527 0 0 1 10.41-3.582c18.852 0 34.133 15.281 34.133 34.133v25.598a8.533 8.533 0 0 0 8.532 8.535zm0 0" data-color="1"></path>
        <path fill="#d4e1f4" d="M341.332 76.8v409.598c-.027 9.415-7.652 17.04-17.066 17.07H25.602c-9.414-.03-17.04-7.655-17.067-17.07V25.602a16.68 16.68 0 0 1 5.035-12.036c.512-.511 28.5-1.023 29.098-1.449a33.977 33.977 0 0 1 18.941 30.551v25.598a8.536 8.536 0 0 0 8.536 8.535zm0 0" data-color="2"></path>
        <path fill="#d4e1f4" d="M418.133 42.668v25.598a8.533 8.533 0 0 1-8.531 8.535H68.266a8.533 8.533 0 0 1-8.532-8.535V42.668c0-18.852-15.28-34.133-34.132-34.133H384c18.852 0 34.133 15.281 34.133 34.133zm0 0" data-color="2"></path>
        <path fill="#f4f4f4" d="M392.535 42.668v25.598A8.534 8.534 0 0 1 384 76.8H68.266a8.533 8.533 0 0 1-8.532-8.535V42.668c0-18.852-15.28-34.133-34.132-34.133h332.8c18.848 0 34.133 15.281 34.133 34.133zm0 0" data-color="3"></path>
        <path fill="#a4c2f7" d="M222.84 247.262v16.308c1.18 19.778 16.629 35.73 36.36 37.547l31.284 3.192c19.188 1.984 33.77 18.144 33.782 37.433v36.695c-.012 7.79-6.332 14.098-14.121 14.098H65.325c-7.802 0-14.126-6.324-14.126-14.125v-36.69c.004-19.297 14.59-35.469 33.785-37.453l26.059-3.192c19.215-2.02 33.797-18.23 33.777-37.547v-16.265zm0 0" data-color="1"></path>
        <path fill="#d4e1f4" d="M183.836 111.668h9.437c25.262.758 45.309 21.531 45.176 46.805v5.777c4.598-2.34 3.41-2.73 7.797-.938 9.906 4.266 13.184 18.961 7.254 32.766-4.676 10.922-7.559 18.188-15.992 18.57-4.446 26.606-25.746 53.051-53.672 53.051-27.93 0-49.23-26.453-53.676-53.05-8.433-.383-11.316-7.68-16-18.57-5.972-13.806-2.656-28.477 7.262-32.767 4.367-1.792 3.191-1.402 7.8.938v-5.777c-.136-25.274 19.91-46.047 45.173-46.805zm0 0" data-color="2"></path>
        <path fill="#d4e1f4" d="M324.266 341.742v36.695c-.012 7.79-6.332 14.098-14.121 14.098H65.325c-7.802 0-14.126-6.324-14.126-14.125v-36.69c.004-19.297 14.59-35.469 33.785-37.453l19.97-2.414c13.19 16.613 43.519 28.242 78.882 28.242 35.652 0 66.156-11.86 79.187-28.637l27.461 2.809c19.204 1.984 33.793 18.172 33.782 37.476zm0 0" data-color="2"></path>
        <path fill="#d4e1f4" d="M503.469 392.535c0 61.266-49.668 110.934-110.934 110.934-4.281.004-8.555-.254-12.8-.77-55.837-6.605-97.903-53.941-97.903-110.164 0-56.226 42.066-103.562 97.902-110.168 4.246-.515 8.52-.77 12.801-.765a110.93 110.93 0 0 1 78.442 32.492 110.924 110.924 0 0 1 32.492 78.441zm0 0" data-color="2"></path>
        <path fill="#e3e7f2" d="M477.867 392.535c0-60.844-43.937-110.168-98.133-110.168-54.199 0-98.132 49.324-98.132 110.168 0 60.84 43.933 110.164 98.132 110.164 54.196 0 98.133-49.324 98.133-110.164zm0 0" data-color="4"></path>
        <path d="M25.602 503.469h25.597c-9.414-.031-17.039-7.656-17.066-17.07V25.601a16.695 16.695 0 0 1 5.035-12.036c.5-.527 1.043-1.011 1.621-1.449A16.562 16.562 0 0 1 51.2 8.531l-25.597.004a16.527 16.527 0 0 0-10.41 3.582c-.583.438-1.126.922-1.622 1.45a16.68 16.68 0 0 0-5.035 12.035v460.796c.027 9.414 7.652 17.04 17.067 17.07zm0 0" fill="#ffffff" data-color="5"></path>
        <path d="M405.25 502.684a109.807 109.807 0 0 1-18.297-3.758 17.043 17.043 0 0 1-6.828 3.797c4.117.492 8.262.742 12.41.746 4.25-.02 8.492-.285 12.715-.785zm0 0" fill="#ffffff" data-color="5"></path>
        <path d="M405.25 282.387a111.594 111.594 0 0 0-12.715-.785v3.097a107.11 107.11 0 0 1 12.715-2.312zm0 0" fill="#ffffff" data-color="5"></path>
        <path d="M0 486.398V25.602h17.066v460.796zm0 0" fill="#ffffff" data-color="5"></path>
        <path fill="#428dff" d="M5.293 425.984c.48.246 1 .418 1.535.512.563.094 1.133.152 1.707.172a8.988 8.988 0 0 0 6.059-2.477 8.772 8.772 0 0 0 1.789-2.816 8.714 8.714 0 0 0-1.79-9.3 8.894 8.894 0 0 0-2.816-1.794 8.503 8.503 0 0 0-3.242-.68 8.959 8.959 0 0 0-6.058 2.473 8.652 8.652 0 0 0 0 12.117l1.277 1.024c.476.324.992.582 1.539.77zm0 0" data-color="6"></path>
        <path fill="#428dff" d="M145.066 477.867a8.534 8.534 0 1 0 0-17.066H59.734a8.533 8.533 0 1 0 0 17.066zm0 0" data-color="6"></path>
        <path fill="#428dff" d="M392.535 273.066c-5.715.043-11.418.5-17.066 1.368V85.332h34.133c9.425 0 17.066-7.64 17.066-17.066V42.668C426.641 19.113 407.555.028 384 0H25.602C11.46 0 0 11.46 0 25.602V384a8.534 8.534 0 1 0 17.066 0V25.602a8.534 8.534 0 0 1 8.536-8.536c14.136 0 25.597 11.461 25.597 25.602v25.598c0 9.425 7.64 17.066 17.067 17.066h290.136v192.77a119.118 119.118 0 0 0-45.578 25.683 46.245 46.245 0 0 0-21.46-7.984l-31.317-3.254a9.07 9.07 0 0 0-.856-.145c-15.023-1.613-26.746-13.738-27.851-28.808v-16.125a80.405 80.405 0 0 0 13.387-28.051 35.22 35.22 0 0 0 16.257-21.195l.332-.778a38.877 38.877 0 0 0 1.383-29.601 24.886 24.886 0 0 0-13.527-14.09c-.852-.34-1.61-.64-2.352-.852-2.254-28.078-25.386-49.894-53.547-50.504h-18.878c-28.165.598-51.305 22.422-53.555 50.504a39.57 39.57 0 0 0-2.774 1.024 24.753 24.753 0 0 0-13.097 13.906 38.921 38.921 0 0 0 1.367 29.606l.367.851a35.136 35.136 0 0 0 16.211 21.145 80.303 80.303 0 0 0 13.34 27.992v16.21c0 15.055-11.465 27.63-26.453 29.016l-25.688 3.207c-23.554 2.38-41.472 22.227-41.445 45.903v36.691c.012 12.485 10.129 22.602 22.613 22.613h208.211a118.048 118.048 0 0 0 4.602 25.602H59.734a8.533 8.533 0 1 0 0 17.066h225.024a120.038 120.038 0 0 0 9.875 17.067H179.199a8.532 8.532 0 0 0-8.531 8.531 8.533 8.533 0 0 0 8.531 8.535h129.887a119.965 119.965 0 0 0 22.23 17.067H25.602a8.534 8.534 0 0 1-8.536-8.536v-34.132a8.533 8.533 0 0 0-17.066 0v34.132C0 500.54 11.46 512 25.602 512h366.933C458.512 512 512 458.512 512 392.535c0-65.98-53.488-119.469-119.465-119.469zm-333.023-256H384c14.14 0 25.602 11.461 25.602 25.602v25.598H68.266V42.668a42.216 42.216 0 0 0-8.754-25.602zm71.047 186.72c-2.407-.11-3.786-2.184-8.192-12.313l-.367-.856a22.2 22.2 0 0 1-1.16-16.476 8.267 8.267 0 0 1 3.566-4.329l1 .512a8.528 8.528 0 0 0 12.364-7.629v-5.683c.023-20.367 16.261-37.02 36.625-37.543h18.878c20.368.515 36.618 17.168 36.633 37.543v5.683a8.528 8.528 0 0 0 4.051 7.262 8.523 8.523 0 0 0 8.305.367l1.023-.52a8.234 8.234 0 0 1 3.559 4.337 22.182 22.182 0 0 1-1.168 16.484l-.352.797c-4.418 10.18-5.793 12.254-8.207 12.363a8.539 8.539 0 0 0-8.023 7.09C225.324 233.062 207.359 256 183.836 256c-23.527 0-41.5-22.938-45.23-45.117a8.53 8.53 0 0 0-8.047-7.098zm22.785 59.937c18.418 12.441 42.547 12.441 60.96 0a46.576 46.576 0 0 0 25.15 39.851 122.678 122.678 0 0 1-55.645 12.16 123.858 123.858 0 0 1-54.614-11.605 45.977 45.977 0 0 0 24.133-40.406zm-93.61 114.73v-36.691c-.035-15.012 11.364-27.582 26.309-29.016l21.254-2.629c17.426 14.219 45.52 22.684 76.512 22.684 31.171 0 59.41-8.586 76.875-23.04l28.894 2.993a29.284 29.284 0 0 1 11.027 3.55A118.816 118.816 0 0 0 273.504 384H65.28a5.553 5.553 0 0 1-5.547-5.547zm332.801 116.48c-56.555 0-102.402-45.847-102.402-102.398 0-56.555 45.847-102.402 102.402-102.402 56.55 0 102.399 45.847 102.399 102.402-.063 56.527-45.872 102.336-102.399 102.399zm0 0" data-color="6"></path>
        <path fill="#428dff" d="M445.703 335.871l-79.36 95.223-27.527-27.528a8.53 8.53 0 0 0-11.96.106 8.53 8.53 0 0 0-.106 11.96l34.133 34.134a8.533 8.533 0 0 0 6.05 2.5h.383a8.533 8.533 0 0 0 6.18-3.063l85.332-102.398a8.537 8.537 0 0 0-1.101-12.024c-3.622-3.015-9.004-2.523-12.024 1.098zm0 0" data-color="6"></path>
    </g>
</svg>