<svg preserveAspectRatio="xMidYMid meet" data-bbox="0.022 0 409.603 512.047" xmlns="http://www.w3.org/2000/svg" width="512pt" viewBox="0.022 0 409.603 512.047" height="512pt" data-type="color" role="presentation" aria-hidden="true">
    <g>
        <path fill="#7facfa" d="M51.223 59.781h307.199c23.566 0 42.668 19.102 42.668 42.664v358.403c0 23.562-19.102 42.664-42.668 42.664h-307.2c-23.562 0-42.667-19.102-42.667-42.664V102.445c0-23.562 19.105-42.664 42.668-42.664zm0 0" data-color="1"></path>
        <path fill="#a4c2f7" d="M51.223 59.781h281.601c23.563 0 42.664 19.102 42.664 42.664v358.403c0 23.562-19.101 42.664-42.664 42.664H51.223c-23.563 0-42.668-19.102-42.668-42.664V102.445c0-23.562 19.105-42.664 42.668-42.664zm0 0" data-color="2"></path>
        <path fill="#d4e1f4" d="M298.691 93.914h51.2c9.414.027 17.039 7.652 17.066 17.066v274.536c0 4.523-1.8 8.863-5 12.066l-66.8 66.797c-3.2 3.203-7.54 5-12.067 5H59.758c-9.414-.027-17.04-7.652-17.067-17.066V110.98c.028-9.414 7.653-17.039 17.067-17.066zm0 0" data-color="3"></path>
        <path fill="#d4e1f4" d="M162.156 51.246c0-23.562 19.102-42.668 42.668-42.668 23.563 0 42.664 19.106 42.664 42.668h34.137c9.414.027 17.035 7.652 17.066 17.066v34.133c-.03 9.414-7.652 17.04-17.066 17.067H128.023c-9.414-.028-17.039-7.653-17.066-17.067V68.313c.027-9.415 7.652-17.04 17.066-17.067zm0 0" data-color="3"></path>
        <path fill="#a4c2f7" d="M290.156 467.844v-66.73a8.536 8.536 0 0 1 8.535-8.536h66.73zm0 0" data-color="2"></path>
        <path fill="#ffffff" d="M51.223 503.512h25.601c-23.566 0-42.668-19.102-42.668-42.664V102.445c0-23.562 19.102-42.664 42.668-42.664H51.223c-23.563 0-42.668 19.102-42.668 42.664v358.403c0 23.562 19.105 42.664 42.668 42.664zm0 0" data-color="4"></path>
        <path fill="#ffffff" d="M17.09 102.445v358.403H.023V102.445zm0 0" data-color="4"></path>
        <path d="M8.555 179.246a8.533 8.533 0 1 0 6.063-14.59l-1.282-1.027a6.634 6.634 0 0 0-1.535-.766 5.49 5.49 0 0 0-1.54-.511 12.45 12.45 0 0 0-1.706-.172 8.988 8.988 0 0 0-6.059 2.476 8.755 8.755 0 0 0-1.789 2.813 8.72 8.72 0 0 0 1.79 9.304 8.815 8.815 0 0 0 2.816 1.79 8.507 8.507 0 0 0 3.242.683zm0 0" fill="#428dff" data-color="5"></path>
        <path d="M51.223 512.047h307.199c28.265-.027 51.172-22.934 51.203-51.2V102.446c-.031-28.265-22.938-51.172-51.203-51.199h-57.856a25.458 25.458 0 0 0-18.941-8.531h-26.309C251.172 18.059 229.824 0 204.824 0c-25.004 0-46.347 18.059-50.492 42.715h-26.309a25.466 25.466 0 0 0-18.945 8.531H51.223C22.957 51.273.05 74.18.023 102.446v34.132a8.533 8.533 0 1 0 17.067 0v-34.133c0-18.851 15.281-34.132 34.133-34.132h51.199v17.066H59.758c-14.14 0-25.602 11.46-25.602 25.601v341.332c0 14.141 11.461 25.602 25.602 25.602H283.09a25.492 25.492 0 0 0 10.242-2.184c.16-.062.29-.164.441-.23a25.639 25.639 0 0 0 7.399-5.121l66.8-66.8a25.55 25.55 0 0 0 5.06-7.356c.085-.18.198-.325.265-.504a25.452 25.452 0 0 0 2.176-10.239v-274.5c0-14.14-11.461-25.601-25.602-25.601h-42.648V68.312h51.199c18.851 0 34.133 15.282 34.133 34.133v358.403c0 18.851-15.282 34.132-34.133 34.132h-307.2c-18.85 0-34.132-15.28-34.132-34.132v-256a8.534 8.534 0 1 0-17.067 0v256c.028 28.265 22.934 51.172 51.2 51.199zm76.8-452.266h34.133a8.534 8.534 0 0 0 8.535-8.535c0-18.851 15.282-34.133 34.133-34.133 18.852 0 34.133 15.282 34.133 34.133a8.533 8.533 0 0 0 8.531 8.535h34.137c4.71 0 8.531 3.82 8.531 8.532v34.132a8.533 8.533 0 0 1-8.531 8.535H128.023a8.534 8.534 0 0 1-8.535-8.535V68.313a8.533 8.533 0 0 1 8.535-8.532zm170.668 389v-47.668h47.664zm51.2-346.336c4.71 0 8.53 3.82 8.53 8.535v273.067h-59.73c-9.425 0-17.066 7.64-17.066 17.066v59.735H59.758a8.534 8.534 0 0 1-8.535-8.535V110.98a8.534 8.534 0 0 1 8.535-8.535h42.664c0 14.14 11.465 25.602 25.601 25.602h153.602c14.137 0 25.598-11.461 25.598-25.602zm0 0" fill="#428dff" data-color="5"></path>
        <path d="M162.156 93.914h85.332a8.534 8.534 0 1 0 0-17.066h-85.332a8.532 8.532 0 0 0-8.531 8.53 8.533 8.533 0 0 0 8.531 8.536zm0 0" fill="#428dff" data-color="5"></path>
        <path d="M145.09 221.914c-4.711 0-8.535 3.82-8.535 8.531v8.535h-51.2v-51.199h25.602a8.533 8.533 0 0 0 8.531-8.535c0-4.71-3.82-8.531-8.531-8.531H85.355c-9.425 0-17.066 7.64-17.066 17.066v51.2c0 9.425 7.64 17.066 17.066 17.066h51.2c9.425 0 17.07-7.64 17.07-17.067v-8.535c0-4.71-3.82-8.53-8.535-8.53zm0 0" fill="#428dff" data-color="5"></path>
        <path d="M136.555 290.18h-51.2c-9.425 0-17.066 7.64-17.066 17.066v51.2c0 9.425 7.64 17.066 17.066 17.066h51.2c9.425 0 17.07-7.64 17.07-17.067v-51.199c0-9.426-7.645-17.066-17.07-17.066zm-51.2 68.265v-51.199h51.2v51.2zm0 0" fill="#428dff" data-color="5"></path>
        <path d="M179.223 204.848h42.668c4.71 0 8.53-3.82 8.53-8.536 0-4.71-3.82-8.53-8.53-8.53h-42.668a8.532 8.532 0 0 0-8.532 8.53 8.533 8.533 0 0 0 8.532 8.536zm0 0" fill="#428dff" data-color="5"></path>
        <path d="M247.488 196.313a8.534 8.534 0 0 0 8.535 8.535h76.801c4.711 0 8.531-3.82 8.531-8.536 0-4.71-3.82-8.53-8.53-8.53h-76.802a8.533 8.533 0 0 0-8.535 8.53zm0 0" fill="#428dff" data-color="5"></path>
        <path d="M179.223 238.98h85.332a8.534 8.534 0 1 0 0-17.066h-85.332a8.532 8.532 0 0 0-8.532 8.531 8.533 8.533 0 0 0 8.532 8.535zm0 0" fill="#428dff" data-color="5"></path>
        <path d="M332.824 221.914h-34.133a8.533 8.533 0 1 0 0 17.066h34.133a8.533 8.533 0 0 0 8.531-8.535c0-4.71-3.82-8.53-8.53-8.53zm0 0" fill="#428dff" data-color="5"></path>
        <path d="M179.223 324.313h42.668c4.71 0 8.53-3.82 8.53-8.532a8.533 8.533 0 0 0-8.53-8.535h-42.668a8.533 8.533 0 0 0-8.532 8.535 8.532 8.532 0 0 0 8.532 8.531zm0 0" fill="#428dff" data-color="5"></path>
        <path d="M332.824 307.246h-76.8a8.534 8.534 0 1 0 0 17.067h76.8a8.532 8.532 0 0 0 8.531-8.532 8.533 8.533 0 0 0-8.53-8.535zm0 0" fill="#428dff" data-color="5"></path>
        <path d="M264.555 341.379h-85.332a8.533 8.533 0 0 0-8.532 8.535 8.532 8.532 0 0 0 8.532 8.531h85.332a8.533 8.533 0 1 0 0-17.066zm0 0" fill="#428dff" data-color="5"></path>
        <path d="M332.824 341.379h-34.133a8.534 8.534 0 1 0 0 17.066h34.133a8.533 8.533 0 0 0 0-17.066zm0 0" fill="#428dff" data-color="5"></path>
        <path d="M155.219 157.223l-36.82 51.53-9.942-9.94a8.53 8.53 0 0 0-11.96.105 8.53 8.53 0 0 0-.106 11.96l17.066 17.067a8.527 8.527 0 0 0 6.031 2.5h.703a8.523 8.523 0 0 0 6.235-3.547l42.668-59.734a8.533 8.533 0 1 0-13.875-9.918zm0 0" fill="#428dff" data-color="5"></path>
    </g>
</svg>