<?xml version="1.0" encoding="UTF-8"?>
<svg data-bbox="67.5 89.7 377 332.3" viewBox="0 0 512 512" xmlns="http://www.w3.org/2000/svg" data-type="shape">
    <g>
        <path d="M330.7 422c-5.5 0-10.3-2.1-14.5-3.9-2.5-1.1-4.8-2.1-6.8-2.5-1.6-.3-3.5-.4-5-.4h-5.2c-3.6 0-7.9-.2-12-1.9-5-2.1-8.6-5.8-11.8-9.1-1.9-2-3.7-3.8-5.4-5-1.8-1.2-4.2-2.2-6.8-3.2-4.3-1.7-9.1-3.6-12.9-7.4-3.8-3.8-5.7-8.6-7.4-12.9-.3-.7-.6-1.5-.9-2.2h-45.5c-3.8 0-6.9-3.1-6.9-6.9s3.1-6.9 6.9-6.9h34.4c-2.1-2.3-4.1-4.9-5.4-8-2-4.9-2-10.1-1.9-14.7 0-2.8.1-5.4-.3-7.6-.4-2-1.4-4.4-2.5-6.8-1.8-4.2-3.9-9-3.9-14.5s2.1-10.3 3.9-14.5c1.1-2.5 2.1-4.8 2.5-6.8.4-2.2.4-4.8.3-7.5-.1-4.6-.2-9.8 1.9-14.7 2.1-5 5.8-8.6 9.1-11.8 2-1.9 3.8-3.7 5-5.4 1.2-1.8 2.2-4.2 3.2-6.8 1.7-4.3 3.6-9.1 7.4-12.9 2-2 4.2-3.4 6.4-4.6H253c-14.6 0-26.5 11.9-26.5 26.5 0 3.8-3.1 6.9-6.9 6.9h-55.7c-6.4 0-12.6 1.2-18.5 3.4-15.7 6.1-31.6 9.1-47.3 9.1-4.5 0-8.6 1.7-11.8 4.9-3.2 3.1-4.9 7.3-4.9 11.8v44.7c0 9.2 7.5 16.7 16.6 16.7 8 0 16.1.8 24.2 2.4 7.8 1.5 15.6 3.8 23.2 6.8 5.9 2.3 12.1 3.4 18.5 3.4h15.2c3.8 0 6.9 3.1 6.9 6.9s-3.1 6.9-6.9 6.9h-15.2c-8.1 0-16-1.5-23.5-4.4-6.9-2.7-13.9-4.7-20.9-6.1-7.2-1.4-14.4-2.1-21.5-2.1-16.8 0-30.5-13.7-30.5-30.5v-44.7c0-8.2 3.2-15.8 8.9-21.6 5.7-5.8 13.4-8.9 21.6-8.9 14 0 28.2-2.8 42.4-8.2 7.5-2.9 15.4-4.4 23.5-4.4h49.3c3.3-19.2 20.2-33.5 39.8-33.5h25.1c2.2-2.2 5.2-4.7 9-6.3 4.1-1.7 8.3-1.9 12-1.9h5.2c1.5 0 3.4 0 5-.4 1.6-.3 3.3-1 5-1.7v-10.9h-16.8c-3.8 0-6.9-3.1-6.9-6.9s3.1-6.9 6.9-6.9h9v-29.6c0-3.8 3.1-6.9 6.9-6.9s6.9 3.1 6.9 6.9v29.6H341v-70.6h-20.6v22.9c0 3.8-3.1 6.9-6.9 6.9s-6.9-3.1-6.9-6.9v-22.9c-3.6-.2-6.5-3.2-6.5-6.9 0-3.8 3.1-6.9 6.9-6.9h47.4c3.8 0 6.9 3.1 6.9 6.9 0 3.7-2.9 6.7-6.5 6.9v70.6h9c3.8 0 6.9 3.1 6.9 6.9 0 3.8-3.1 6.9-6.9 6.9H347v10.9c1.8.8 3.5 1.4 5.1 1.7 1.6.3 3.6.4 5 .4h5.2c3.7 0 7.9.2 12 1.9 5 2.1 8.6 5.8 11.8 9.1 1.9 2 3.7 3.8 5.4 5 1.8 1.2 4.2 2.2 6.8 3.2 4.3 1.7 9.1 3.6 12.9 7.4 3.8 3.8 5.7 8.6 7.4 12.9 1 2.6 2 5 3.2 6.8 1.2 1.8 3 3.5 5 5.4 3.3 3.2 7.1 6.8 9.1 11.8 2 4.9 2 10.1 1.9 14.7 0 2.8-.1 5.4.3 7.5.4 2 1.4 4.4 2.5 6.8 1.8 4.2 3.9 9 3.9 14.5s-2.1 10.3-3.9 14.5c-1.1 2.5-2.1 4.8-2.5 6.8-.4 2.2-.4 4.8-.3 7.5.1 4.6.2 9.8-1.9 14.7-2.1 5-5.8 8.6-9.1 11.8-2 1.9-3.8 3.7-5 5.4-1.2 1.8-2.2 4.2-3.2 6.8-1.7 4.3-3.6 9.1-7.4 12.9-3.8 3.8-8.6 5.7-12.9 7.4-2.6 1-5 2-6.8 3.2-1.8 1.2-3.6 3-5.4 5-3.2 3.3-6.8 7.1-11.8 9.1-4.1 1.7-8.3 1.9-12 1.9h-5.2c-1.5 0-3.4 0-5 .4-2 .4-4.3 1.4-6.8 2.5-4.3 2.1-9.1 4.2-14.6 4.2zm-26.4-20.6c2.1 0 4.9.1 7.7.6 3.5.7 6.6 2.1 9.6 3.4 3.3 1.4 6.4 2.8 9 2.8 2.6 0 5.7-1.3 9-2.8 3-1.3 6.2-2.7 9.7-3.4 2.8-.6 5.6-.6 7.7-.6h5.2c2.4 0 4.8-.1 6.6-.9 2.4-1 4.7-3.4 7.2-6 2.3-2.4 4.7-4.9 7.7-6.9s6.2-3.3 9.4-4.5c3.3-1.3 6.4-2.5 8.2-4.3 1.8-1.8 3-4.9 4.3-8.2 1.2-3.1 2.5-6.3 4.5-9.4 2-3 4.5-5.4 6.9-7.7 2.6-2.5 5-4.8 6-7.2.9-2.3.9-5.6.8-9.1-.1-3.4-.1-6.9.6-10.5.7-3.5 2.1-6.6 3.4-9.7 1.4-3.3 2.8-6.4 2.8-9 0-2.6-1.3-5.7-2.8-9-1.3-3.1-2.7-6.2-3.4-9.7-.7-3.6-.7-7.1-.6-10.4.1-3.6.1-6.9-.8-9.2-1-2.4-3.4-4.7-6-7.2-2.4-2.3-4.9-4.7-6.9-7.7s-3.3-6.2-4.5-9.4c-1.3-3.3-2.5-6.4-4.3-8.2-1.8-1.8-4.9-3-8.2-4.3-3.1-1.2-6.3-2.5-9.4-4.5-3-2-5.4-4.5-7.7-6.9-2.5-2.6-4.8-5-7.2-6-1.8-.8-4.3-.9-6.7-.9h-5.3c-2.1 0-4.9-.1-7.7-.6-3.5-.7-6.6-2.1-9.7-3.4-3.3-1.4-6.4-2.8-9-2.8-2.6 0-5.7 1.3-9 2.8-3 1.3-6.2 2.7-9.7 3.4-2.8.6-5.6.6-7.7.6h-5.3c-2.4 0-4.8.1-6.6.9-2.4 1-4.7 3.4-7.2 6-2.3 2.4-4.7 4.9-7.7 6.9s-6.3 3.3-9.4 4.5c-3.3 1.3-6.4 2.5-8.2 4.3-1.8 1.8-3 4.9-4.3 8.2-1.2 3.1-2.5 6.4-4.5 9.4s-4.5 5.4-6.9 7.7c-2.6 2.5-5 4.8-6 7.2-.9 2.3-.9 5.6-.8 9.1.1 3.4.1 6.9-.6 10.5-.7 3.5-2.1 6.6-3.4 9.7-1.4 3.3-2.8 6.4-2.8 9 0 2.6 1.3 5.7 2.8 9 1.3 3 2.7 6.2 3.4 9.7.7 3.6.7 7.1.6 10.5-.1 3.5-.1 6.9.8 9.1 1 2.4 3.4 4.7 6 7.2 2.4 2.3 4.9 4.7 6.9 7.7s3.3 6.3 4.5 9.4c1.3 3.3 2.5 6.4 4.3 8.2 1.8 1.8 4.9 3 8.2 4.3 3.1 1.2 6.3 2.5 9.4 4.5 3 2 5.4 4.5 7.7 6.9 2.5 2.6 4.8 5 7.2 6 1.8.8 4.4.9 6.6.9h5.6zm23.9-206.8c.8-.1 1.7-.1 2.5-.1s1.6 0 2.5.1v-6.3h-4.9v6.3z"/>
        <path d="M439.2 294.3c-1.1-2.5-2.2-4.9-2.6-7.1-.5-2.3-.4-5-.4-7.9.1-4.4.2-9.4-1.8-14.1-2-4.7-5.6-8.2-8.8-11.3-2-1.9-3.9-3.8-5.2-5.7-1.3-1.9-2.3-4.4-3.3-7-1.6-4.1-3.5-8.8-7.1-12.4-3.6-3.6-8.3-5.4-12.4-7.1-2.6-1-5.1-2-7-3.3-1.9-1.3-3.7-3.2-5.7-5.2-3.1-3.2-6.6-6.8-11.3-8.8-4.7-1.9-9.6-1.8-14.1-1.8-2.9 0-5.5.1-7.9-.4-1.9-.4-4.1-1.3-6.3-2.2v-13.4h18.3c3 0 5.4-2.4 5.4-5.4s-2.4-5.4-5.4-5.4h-10.5v-73.6h1.1c3 0 5.4-2.4 5.4-5.4s-2.4-5.4-5.4-5.4H307c-3 0-5.4 2.4-5.4 5.4s2.4 5.4 5.4 5.4h1.1v24.4c0 3 2.4 5.4 5.4 5.4s5.4-2.4 5.4-5.4v-24.4h23.6v73.6h-23.6v-31.1c0-3-2.4-5.4-5.4-5.4s-5.4 2.4-5.4 5.4v31.1h-10.5c-3 0-5.4 2.4-5.4 5.4s2.4 5.4 5.4 5.4h18.3V200c-2.2 1-4.3 1.8-6.3 2.2-2.3.5-5 .4-7.9.4-4.4-.1-9.4-.2-14.1 1.8-3.6 1.5-6.4 3.9-9 6.4H253c-19.6 0-35.9 14.6-38.5 33.5h-50.6c-7.9 0-15.6 1.4-23 4.3-14.3 5.5-28.7 8.3-42.9 8.3-7.8 0-15 3-20.5 8.5S69 278.2 69 285.9v44.7c0 16 13 29 29 29 7.2 0 14.5.7 21.8 2.2 7.1 1.4 14.2 3.5 21.1 6.2 7.3 2.8 15.1 4.3 23 4.3h15.2c3 0 5.4-2.4 5.4-5.4s-2.4-5.4-5.4-5.4h-15.2c-6.6 0-13-1.2-19.1-3.5-7.5-2.9-15.3-5.2-23-6.7-8-1.6-16-2.4-23.9-2.4-10 0-18.1-8.1-18.1-18.2V286c0-4.9 1.9-9.4 5.3-12.8 3.4-3.4 8-5.3 12.8-5.3 15.5 0 31.3-3 46.8-9 6.1-2.3 12.5-3.5 19.1-3.5h55.7c3 0 5.4-2.4 5.4-5.4 0-15.5 12.6-28 28-28h10.8c-.1 0-.1.1-.2.1-4.1 1.6-8.8 3.5-12.4 7.1-3.6 3.6-5.4 8.3-7.1 12.4-1 2.6-2 5.1-3.3 7-1.3 1.9-3.2 3.7-5.2 5.7-3.2 3.1-6.8 6.6-8.8 11.3-1.9 4.7-1.8 9.7-1.8 14.1 0 2.9.1 5.5-.4 7.9-.4 2.2-1.5 4.6-2.6 7.1-1.8 4.1-3.8 8.7-3.8 13.9 0 5.2 2 9.8 3.8 13.9 1.1 2.5 2.2 4.9 2.6 7.1.5 2.3.4 5 .4 7.9-.1 4.4-.2 9.4 1.8 14.1 1.7 4.1 4.7 7.3 7.5 10.1h-38c-3 0-5.4 2.4-5.4 5.4s2.4 5.4 5.4 5.4h46.5c.4 1 .8 2 1.3 3.1 1.6 4.1 3.5 8.8 7.1 12.4 3.6 3.6 8.3 5.4 12.4 7.1 2.6 1 5.1 2 7.1 3.3 1.9 1.3 3.7 3.2 5.7 5.2 3.1 3.2 6.6 6.8 11.3 8.8 4.7 1.9 9.6 1.8 14.1 1.8 2.9 0 5.5-.1 7.9.4 2.2.4 4.6 1.5 7.1 2.6 4.1 1.8 8.7 3.8 13.9 3.8 5.2 0 9.8-2 13.9-3.8 2.5-1.1 4.9-2.2 7.1-2.6 2.3-.5 5-.4 7.9-.4 4.4.1 9.4.2 14.1-1.8 4.7-2 8.2-5.6 11.3-8.8 1.9-2 3.8-3.9 5.7-5.2 1.9-1.3 4.4-2.3 7-3.3 4.1-1.6 8.8-3.5 12.4-7.1 3.6-3.6 5.4-8.3 7.1-12.4 1-2.6 2-5.1 3.3-7 1.3-1.9 3.2-3.7 5.2-5.7 3.2-3.1 6.8-6.6 8.8-11.3 1.9-4.7 1.8-9.6 1.8-14.1 0-2.9-.1-5.5.4-7.9.4-2.2 1.5-4.6 2.6-7.1 1.8-4.1 3.8-8.7 3.8-13.9 0-5.6-2-10.2-3.8-14.3zM326.7 186.7h7.9v9.6c-1.3-.2-2.6-.4-4-.4s-2.7.1-4 .4l.1-9.6zm102.6 131.1c-1.3 3-2.6 6-3.3 9.3-.7 3.5-.6 6.9-.6 10.1.1 3.7.1 7.2-.9 9.7-1.1 2.7-3.6 5.1-6.3 7.7-2.3 2.3-4.8 4.6-6.7 7.5-1.9 2.9-3.2 6-4.4 9.1-1.4 3.4-2.6 6.7-4.6 8.7-2 2-5.3 3.3-8.7 4.6-3 1.2-6.2 2.4-9.1 4.4-2.9 1.9-5.2 4.3-7.5 6.7-2.6 2.7-5 5.2-7.7 6.3-2.6 1.1-6 1-9.7.9-3.3-.1-6.7-.1-10.1.6-3.3.7-6.4 2-9.4 3.3-3.4 1.5-6.7 2.9-9.6 2.9-2.9 0-6.2-1.4-9.6-2.9-3-1.3-6-2.6-9.4-3.3-2.5-.5-5-.6-7.4-.6h-2.7c-3.7.1-7.2.1-9.7-.9-2.7-1.1-5.1-3.6-7.7-6.3-2.3-2.3-4.6-4.8-7.5-6.7-2.9-1.9-6-3.2-9.1-4.4-3.4-1.4-6.7-2.6-8.7-4.6s-3.3-5.3-4.6-8.7c-1.2-3-2.5-6.2-4.4-9.1-1.9-2.9-4.3-5.2-6.7-7.5-2.7-2.6-5.2-5-6.3-7.7-1.1-2.6-1-6-.9-9.7.1-3.3.1-6.7-.6-10.1-.7-3.3-2-6.4-3.3-9.4-1.5-3.4-2.9-6.7-2.9-9.6 0-2.9 1.4-6.2 2.9-9.6 1.3-3 2.6-6 3.3-9.4.7-3.5.6-6.9.6-10.1-.1-3.7-.1-7.2.9-9.7 1.1-2.7 3.6-5.1 6.3-7.7 2.3-2.3 4.8-4.6 6.7-7.5 1.9-2.9 3.2-6 4.4-9.1 1.4-3.4 2.6-6.7 4.6-8.7 2-2 5.3-3.3 8.7-4.6 3-1.2 6.2-2.4 9.1-4.4 2.9-1.9 5.2-4.3 7.5-6.7 2.6-2.7 5-5.2 7.7-6.3 2.6-1.1 6-1 9.7-.9 3.3.1 6.7.1 10.1-.6 3.3-.7 6.4-2 9.4-3.3 3.4-1.5 6.7-2.9 9.6-2.9 2.9 0 6.2 1.4 9.6 2.9 3 1.3 6 2.6 9.3 3.3 3.5.7 6.9.6 10.1.6 3.7-.1 7.2-.1 9.7.9 2.7 1.1 5.1 3.6 7.7 6.3 2.3 2.3 4.6 4.8 7.5 6.7 2.9 1.9 6 3.2 9.1 4.4 3.4 1.4 6.7 2.6 8.7 4.6s3.3 5.3 4.6 8.7c1.2 3 2.4 6.2 4.4 9.1 1.9 2.9 4.3 5.2 6.7 7.5 2.7 2.6 5.2 5 6.3 7.7 1.1 2.6 1 6 .9 9.7-.1 3.3-.1 6.7.6 10.1.7 3.3 2 6.4 3.3 9.4 1.5 3.4 2.9 6.7 2.9 9.6.1 3.1-1.3 6.3-2.8 9.7z"/>
        <path d="M116 327.6c-1.8 0-3.6-.7-4.9-2-1.3-1.3-2-3-2-4.9 0-1.8.7-3.6 2-4.9l25-24.9c1.3-1.3 3-2 4.9-2 1.8 0 3.6.7 4.9 2 2.7 2.7 2.7 7.1 0 9.8l-25 24.9c-1.3 1.3-3 2-4.9 2z"/>
        <path d="M144.8 291.9c-2.1-2.1-5.5-2.1-7.7 0l-25 24.9c-2.1 2.1-2.1 5.5 0 7.7 1.1 1.1 2.4 1.6 3.8 1.6s2.8-.5 3.8-1.6l25-24.9c2.2-2.1 2.2-5.6.1-7.7z"/>
        <path d="M147 327.6c-1.8 0-3.6-.7-4.9-2-1.3-1.3-2-3-2-4.9 0-1.8.7-3.6 2-4.9l25-24.9c1.3-1.3 3-2 4.9-2 1.8 0 3.6.7 4.9 2 2.7 2.7 2.7 7.1 0 9.8l-25 24.9c-1.3 1.3-3.1 2-4.9 2z"/>
        <path d="M175.8 291.9c-2.1-2.1-5.5-2.1-7.7 0l-25 24.9c-2.1 2.1-2.1 5.5 0 7.7 1.1 1.1 2.4 1.6 3.8 1.6s2.8-.5 3.8-1.6l25-24.9c2.2-2.1 2.2-5.6.1-7.7z"/>
        <path d="M177.9 327.6c-1.8 0-3.6-.7-4.9-2-1.3-1.3-2-3-2-4.9 0-1.8.7-3.6 2-4.9l25-24.9c1.3-1.3 3-2 4.9-2 1.8 0 3.6.7 4.9 2 2.7 2.7 2.7 7.1 0 9.8l-25 24.9c-1.3 1.3-3 2-4.9 2z"/>
        <path d="M206.7 291.9c-2.1-2.1-5.5-2.1-7.7 0l-25 24.9c-2.1 2.1-2.1 5.5 0 7.7 1.1 1.1 2.4 1.6 3.8 1.6s2.8-.5 3.8-1.6l25-24.9c2.2-2.1 2.2-5.6.1-7.7z"/>
        <path d="M330.7 338.1c-16.5 0-29.9-13.4-29.9-29.9s13.4-29.9 29.9-29.9 29.9 13.4 29.9 29.9c0 9-4 17.4-11 23.1-1.2 1-2.8 1.6-4.4 1.6-2.1 0-4-.9-5.4-2.5-2.4-3-2-7.3 1-9.7 3.8-3.1 5.9-7.6 5.9-12.4 0-8.8-7.2-16-16-16-8.9 0-16.1 7.2-16.1 16s7.2 16 16.1 16c3.8 0 6.9 3.1 6.9 6.9s-3.1 6.9-6.9 6.9z"/>
        <path d="M330.7 279.8c-15.7 0-28.4 12.7-28.4 28.4 0 15.6 12.7 28.4 28.4 28.4 3 0 5.4-2.4 5.4-5.4s-2.4-5.4-5.4-5.4c-9.7 0-17.6-7.9-17.6-17.5 0-9.7 7.9-17.5 17.6-17.5 9.7 0 17.5 7.9 17.5 17.5 0 5.3-2.4 10.2-6.5 13.6-2.3 1.9-2.7 5.3-.8 7.6 1.9 2.3 5.3 2.7 7.6.8 6.6-5.4 10.4-13.4 10.4-22 .2-15.7-12.6-28.5-28.2-28.5z"/>
    </g>
</svg>
