<?xml version="1.0" encoding="UTF-8"?>
<svg data-bbox="0.1 85.4 511.802 341.2" viewBox="0 0 512 512" xmlns="http://www.w3.org/2000/svg" data-type="shape">
    <g>
        <path d="M503.5 187.7h-34.1c-3.4 0-6.8 2.6-7.7 6l-23.8 70.4c-.1.2-.3.4-.6.4H415c-.2 0-.4-.1-.5-.3l-22.9-38.1c-1.7-2.6-4.3-4.3-7.7-4.3h-33.5c-.3 0-.6-.3-.6-.6v-24.4c0-5.1-4.1-9.1-9.1-9.1h-58.5c-.3 0-.6-.3-.6-.6v-32.9c0-.3.3-.6.6-.6h24.4c5.1 0 9.1-4.1 9.1-9.1v-50c0-5.1-4.1-9.1-9.1-9.1H154.2c-5.1 0-9.1 4.1-9.1 9.1v50c0 5.1 4.1 9.1 9.1 9.1h24.4c.3 0 .6.3.6.6v32.9c0 .3-.3.6-.6.6h-67.7c-2.6 0-4.3.9-6 2.6s-2.6 3.4-2.6 6v25c0 .3-.3.6-.6.6H43.3c-5.1 0-9.1 4.1-9.1 9.1v50c0 .3-.3.6-.6.6H17.7c-.3 0-.6-.3-.6-.6v-24.3c0-6-5.7-10.6-11.4-8.9-3.5 1-5.6 4-5.6 8.1v67.5c0 6 5.7 10.6 11.4 8.9 3.5-1 5.6-4 5.6-8.1v-25c0-.3.3-.6.6-.6h15.8c.3 0 .6.3.6.6v67c0 5.1 4.1 9.1 9.1 9.1h63.1c.2 0 .4.1.5.3l31.4 47.5.1.1c1.7 1.7 4.2 3.4 6.8 3.4H384c3.4 0 6-1.7 7.7-5.1l22.9-45.7c.1-.2.3-.3.5-.3h23.1c.2 0 .4.1.5.3l22.9 45.7c1.7 3.4 4.3 5.1 7.7 5.1h33.5c5.1 0 9.1-4.1 9.1-9.1V196.3c.1-5.2-3.3-8.6-8.4-8.6zm-340.8-85.3H298c.3 0 .6.3.6.6v32.9c0 .3-.3.6-.6.6H162.7c-.3 0-.6-.3-.6-.6V103c0-.3.3-.6.6-.6zm34.2 51.2h67c.3 0 .6.3.6.6v32.9c0 .3-.3.6-.6.6h-67c-.3 0-.6-.3-.6-.6v-32.9c0-.3.2-.6.6-.6zM51.2 357.8V239.5c0-.3.3-.6.6-.6h50c.3 0 .6.3.6.6v118.2c0 .3-.3.6-.6.6h-50c-.3.1-.6-.2-.6-.5zm326.4 51.8h-228c-.2 0-.4-.1-.5-.3l-29.6-44.8c-.1-.1-.1-.2-.1-.3V205.4c0-.3.3-.6.6-.6h212.1c.3 0 .6.3.6.6v24.4c0 5.1 4.1 9.1 9.1 9.1h36.6c.2 0 .4.1.5.3l21.9 36.5c.1.1.1.2.1.3v87.3c0 .1 0 .2-.1.3L378 409.2c.1.3-.1.4-.4.4zm40.5-51.2v-76.2c0-.3.3-.6.6-.6h15.8c.3 0 .6.3.6.6v75.6c0 .3-.3.6-.6.6h-16.4zm76.2 51.2h-19.5c-.2 0-.4-.1-.5-.3L452.4 367c0-.1-.1-.2-.1-.3V273l22.9-67.8c.1-.2.3-.4.6-.4h18.6c.3 0 .6.3.6.6V409c-.1.3-.3.6-.7.6z"/>
    </g>
</svg>
