<?xml version="1.0" encoding="UTF-8"?>
<svg data-bbox="32.8 0 309.2 338.1" viewBox="0 0 342.1 342.1" xmlns="http://www.w3.org/2000/svg" data-type="shape">
    <g>
        <path d="M39.8 338.1c-3.9 0-7-3.1-7-7V56.2C32.8 25.2 58 0 89 0h196.8c31 0 56.2 25.2 56.2 56.2 0 27.4-20.4 51.3-47.5 55.5l-1.7.3v219.1c0 3.9-3.1 7-7 7h-246zm7-14h232V112.4H89c-14.5 0-28.3-5.5-38.8-15.6l-3.4-3.2v230.5zm82.8-306.7c10.1 10.5 15.6 24.3 15.6 38.8s-5.5 28.3-15.6 38.8l-3.2 3.4h159.5c23.3 0 42.2-18.9 42.2-42.2S309.1 14 285.9 14H126.4l3.2 3.4zM89 14c-23.3 0-42.2 18.9-42.2 42.2 0 23.3 18.9 42.2 42.2 42.2 23.3 0 42.2-18.9 42.2-42.2C131.2 32.9 112.3 14 89 14zm0 64.3c-12.2 0-22.1-9.9-22.1-22.1 0-12.2 9.9-22.1 22.1-22.1 3.9 0 7 3.1 7 7s-3.1 7-7 7c-4.5 0-8.1 3.6-8.1 8.1s3.6 8.1 8.1 8.1c3.9 0 7 3.1 7 7s-3.1 7-7 7z"/>
    </g>
</svg>
