<?xml version="1.0" encoding="UTF-8"?>
<svg data-bbox="3 36.9 429.8 362.4" viewBox="0 0 435.8 435.8" xmlns="http://www.w3.org/2000/svg" data-type="shape">
    <g>
        <path d="M344 85.9c0 6.627-5.373 12-12 12s-12-5.373-12-12 5.373-12 12-12 12 5.373 12 12z"/>
        <path d="M272 398.9c-7.2 0-13-5.8-13-13v-51h-21.4c-14.5 0-18.8 8.8-23.8 18.9-.4.9-.9 1.8-1.3 2.7l-1.4 2.8 2.9 1.3c9.1 3.9 16.7 10.9 21.5 19.6 2.1 3.8 2 8.2-.3 12.1-2.4 4.1-6.7 6.6-11.5 6.6H24c-11.6 0-21-9.4-21-21s9.4-21 21-21l51.5.1-1.9-4.2c-5.8-13.2-6.6-22.6-6.6-30.9 0-19.4 8.7-40.2 22.8-54.2 14.3-14.2 83-53.7 124.1-77.3 4.2-2.4 8.1-4.6 11.6-6.7l1.5-.9v-7.9h-3c-2.3 0-4.6-.2-6.9-.5-20.3-3-38.1-24.8-38.1-46.7v-12.6c0-10.3 4-20 11.3-27.3L228 50.1c8.5-8.5 19.9-13.2 31.9-13.2h56.2c12 0 23.3 4.7 31.8 13.2L367.8 70c13.8 13.8 28.1 15 44 15h8c8 0 13 6.7 13 13 0 4.6-9.1 19.5-16 30.4-1.2 1.9-2.2 3.6-2.9 4.7-8.5 14.1-29.5 26-45.9 26h-51V196l1.2.9c23.5 17.8 34.6 45.7 29.6 74.7-3.7 21.3-16.8 40.3-35.9 52.1l-1.2.8-4.1 32.9 3 .4c13.9 1.7 26.4 9.9 33.4 22 2.3 4 2.3 8.8 0 12.8-2.4 4.2-6.7 6.7-11.4 6.7H272zm64.7-10l-2.5-4.5c-8.7-15.2-22.4-16.8-36.9-18.4l-1.8-.2 5.9-47.6.4-.3c27.5-17.4 33.7-33.5 36.2-48.3 4.7-27.4-4.7-48.6-30.6-68.7l-.4-.3v-48l-1.2-.9c-6.3-4.5-10.9-10.6-13.4-17.6l-.5-1.3h10.8l.3.6c4.5 9.4 14 15.4 24.3 15.4H368c13.8 0 30.2-9.3 37.3-21.1l10.7-17.8-2.7-1.5c-4.6-2.5-7.9-6.6-9.4-11.7l-.6-2.1-2.1-.1c-15.4-.7-29.7-6.9-40.4-17.6L340.9 57c-6.6-6.6-15.4-10.3-24.7-10.3H269v83c0 18.9-12.1 35.9-30 42.2l-2 .7v15.8l-.5.3c-19 11-114.6 66.3-132.3 79.4-17.4 12.9-27.5 33.3-27.1 54.5.2 17.6 7.2 34.1 19.7 46.6 12.6 12.6 29.3 19.5 47.2 19.5h84.9l-2.4-4.4c-5.8-10.6-15.9-14.8-26.5-19.2l-2.5-1 3.3-6.4c7.3-11.5 10.9-26.3 10-40.6-1-15-6.7-28.8-16.5-39.8l-.6-.7 7.1-7.1.7.8c13.1 14.6 20.2 34.5 19.5 54.5l-.2 4.7 4.3-1.8c4.7-2 8.8-2.9 12.7-2.9H259v-16h10v80h67.7zM24 366.9c-6 0-11 4.9-11 11s4.9 11 11 11h81.5l-7.3-5.4c-8.6-6.4-9.4-7.4-15.2-15l-1-1.5-58-.1zM255.6 47.3c-7.8 1-15.2 4.6-20.8 10.1l-37.5 37.5c-5.4 5.4-8.4 12.6-8.4 20.3v13c0 22.9 17.8 36.6 34.9 36.6 19.3 0 35.1-15.6 35.1-34.8V47l-3.3.3z"/>
        <path d="M272 397.9c-6.6 0-12-5.4-12-12v-52h-22.4c-15.1 0-19.8 9.5-24.7 19.5-.4.9-.9 1.8-1.3 2.7l-1.9 3.8 3.9 1.7c8.9 3.9 16.4 10.7 21.1 19.2 1.9 3.5 1.8 7.5-.3 11.1-2.3 3.8-6.2 6.1-10.6 6.1H24c-11 0-20-9-20-20s9-20 20-20l53 .1-2.5-5.6c-5.7-13-6.5-22.4-6.5-30.5 0-19.1 8.6-39.7 22.5-53.5 14.2-14.1 82.9-53.5 123.9-77.1 4.2-2.4 8.1-4.6 11.6-6.7l2-1.2V174h-4c-2.2 0-4.5-.2-6.8-.5-19.8-3-37.2-24.3-37.2-45.7v-12.6c0-10.1 3.9-19.5 11-26.6l37.7-37.7C237 42.6 248.1 38 259.9 38h56.2c11.8 0 22.8 4.6 31.1 12.9l19.9 19.9c14.1 14.1 28.6 15.3 44.7 15.3h7.9c7.4 0 12 6.2 12 12 0 4.8-11.9 23.6-15.8 29.8-1.2 2-2.3 3.6-2.9 4.7-8.3 13.8-28.9 25.5-45 25.5h-52v38.4l1.6 1.2c23.2 17.6 34.2 45.1 29.3 73.8-3.6 21.1-16.5 39.8-35.5 51.4l-1.6 1-4.3 34.3 4 .5c13.6 1.7 25.8 9.7 32.6 21.5 2.1 3.7 2.1 8.1 0 11.8-2.2 3.8-6.1 6.1-10.5 6.1H272zm-4-8h70.4l-3.4-6c-8.9-15.7-22.9-17.3-37.7-18.9-.3 0-.5-.1-.8-.1l5.8-46.1c27.8-17.5 34.1-33.9 36.7-48.9 4.8-27.7-4.8-49.3-31-69.6v-48l-1.7-1.2c-6.1-4.4-10.6-10.4-13.1-17.2h8.7c4.6 9.7 14.4 16 25.2 16H368c14.1 0 30.9-9.5 38.2-21.6l11.2-18.7-3.7-2c-4.4-2.4-7.5-6.3-8.9-11.1l-.8-2.8-2.9-.1c-15.1-.7-29.2-6.8-39.7-17.3l-19.9-19.9c-6.8-6.8-15.8-10.5-25.5-10.5h-48v84c0 18.5-11.8 35.1-29.4 41.3l-2.7.9v15.8c-18.5 10.7-114.7 66.3-132.4 79.5-17.6 13.1-27.9 33.8-27.5 55.3.2 17.8 7.3 34.6 20 47.3 12.8 12.7 29.8 19.8 47.9 19.8h86.5l-3.2-5.9c-5.9-10.9-16.2-15.2-27-19.6l-1.5-.6 2.8-5.5c7.3-11.6 11-26.6 10.1-41.1-1-15.3-6.8-29.2-16.8-40.4l5.7-5.7c13 14.5 20 33.9 19.2 53.8l-.2 6.3 5.8-2.4c4.6-1.9 8.5-2.8 12.4-2.8H260v-16h8v80zm-244-24c-6.6 0-12 5.4-12 12s5.4 12 12 12h84.5l-9.7-7.2c-8.5-6.4-9.3-7.3-15-14.8l-1.4-1.8-58.4-.2zM255.5 46.3c-8.1 1-15.7 4.7-21.4 10.4l-37.5 37.5c-5.6 5.6-8.7 13-8.7 21v13c0 23.5 18.3 37.6 35.9 37.6 19.9 0 36.1-16.1 36.1-35.8V45.8l-4.4.5z"/>
    </g>
</svg>
